<svg width="512" height="512" viewBox="0 0 512 512" fill="none" xmlns="http://www.w3.org/2000/svg">
<g clip-path="url(#clip0_3_715)">
<path d="M398.029 492.719L266.041 427.987V359.903C312.61 358.02 355.163 343.045 386.745 317.237C423.034 287.588 443.105 246.102 444.787 197.286C444.887 194.562 443.871 191.914 441.975 189.956C440.08 187.997 437.481 186.893 434.757 186.893H431.356C431.594 183.993 431.732 181.068 431.732 178.106C431.732 133.809 403.402 96.1514 363.874 82.2182C354.786 35.3727 313.577 0 264.082 0C218.655 0 180.182 29.812 167.153 70.9336C121.826 81.1764 87.9723 121.67 87.9723 170.085C87.9723 175.809 88.4492 181.42 89.353 186.893H77.2525C74.5286 186.893 71.9177 187.997 70.0223 189.956C68.1395 191.914 67.1227 194.562 67.2106 197.286C68.9052 246.102 88.9764 287.588 125.253 317.237C156.847 343.045 199.4 358.02 245.957 359.903V427.987L113.529 492.945C109.336 495.004 107.115 499.674 108.169 504.23C109.223 508.774 113.278 512 117.96 512H394.05C394.063 512 394.063 512 394.075 512C399.623 512 404.117 507.506 404.117 501.958C404.117 497.816 401.607 494.251 398.029 492.719ZM411.649 178.106C411.649 181.081 411.485 184.006 411.172 186.893H248.932C248.63 184.006 248.467 181.068 248.467 178.106C248.467 133.043 284.995 96.5154 330.058 96.5154C375.121 96.5154 411.649 133.043 411.649 178.106ZM264.082 20.0838C300.597 20.0838 331.501 44.0715 341.92 77.1471C338.016 76.6952 334.075 76.4316 330.058 76.4316C304.865 76.4316 281.819 85.6199 264.057 100.796C245.492 80.8751 219.032 68.4106 189.647 68.4106H189.571C202.3 39.9292 230.869 20.0838 264.082 20.0838ZM189.647 88.4944C213.622 88.4944 235.187 98.8502 250.112 115.319C236.517 132.616 228.383 154.407 228.383 178.106C228.383 181.068 228.522 183.993 228.76 186.893H109.801C108.659 181.47 108.056 175.847 108.056 170.085C108.056 125.022 144.584 88.4944 189.647 88.4944ZM87.9723 206.977H424.025C421.301 234.717 411.561 259.22 396.084 279.379V261.341C396.084 242.437 380.707 227.06 361.803 227.06H346.25C327.359 227.06 311.982 242.437 311.982 261.341V283.157C311.982 290.99 305.618 297.354 297.786 297.354H297.296C289.476 297.354 283.112 290.99 283.112 283.157V260.086C283.112 241.182 267.735 225.805 248.831 225.805H242.066C223.174 225.805 207.798 241.182 207.798 260.086V265.584C207.798 273.416 201.433 279.781 193.601 279.781H184.324C176.504 279.781 170.14 273.416 170.14 265.584V263.852C170.14 244.948 154.764 229.571 135.86 229.571H91.9137C90.0685 222.316 88.738 214.772 87.9723 206.977ZM98.6418 249.655H135.86C143.692 249.655 150.056 256.019 150.056 263.852V265.584C150.056 284.488 165.433 299.864 184.324 299.864H193.601C212.505 299.864 227.881 284.488 227.881 265.584V260.086C227.881 252.253 234.245 245.889 242.066 245.889H248.831C256.664 245.889 263.028 252.253 263.028 260.086V283.157C263.028 302.061 278.405 317.438 297.296 317.438H297.786C316.69 317.438 332.066 302.061 332.066 283.157V261.341C332.066 253.508 338.43 247.144 346.25 247.144H361.803C369.636 247.144 376 253.508 376 261.341V300.454C346.426 325.609 304.991 340.032 255.999 340.032C179.981 340.032 122.127 305.312 98.6418 249.655ZM161.228 491.916L255.999 445.422L350.782 491.916H161.228Z" fill="white"/>
<path d="M280.447 158.573C279.139 163.939 282.416 169.323 287.775 170.662C288.589 170.866 289.402 170.962 290.205 170.962C294.69 170.962 298.782 167.924 299.946 163.386C300.575 160.934 306.717 139.517 328.365 143.234C333.832 144.166 339.02 140.495 339.955 135.029C340.891 129.563 337.217 124.373 331.75 123.438C299.294 117.888 283.999 143.995 280.447 158.573Z" fill="white"/>
</g>
<defs>
<clipPath id="clip0_3_715">
<rect width="512" height="512" fill="white"/>
</clipPath>
</defs>
</svg>
