<svg width="512" height="512" viewBox="0 0 512 512" fill="none" xmlns="http://www.w3.org/2000/svg">
<g clip-path="url(#clip0_3_927)">
<path d="M187.648 426.667C164.122 426.667 144.981 445.807 144.981 469.334C144.981 492.86 164.121 512.001 187.648 512.001C211.174 512.001 230.315 492.861 230.315 469.334C230.315 445.807 211.174 426.667 187.648 426.667ZM187.648 494.933C173.534 494.933 162.048 483.447 162.048 469.333C162.048 455.219 173.534 443.733 187.648 443.733C201.762 443.733 213.248 455.219 213.248 469.333C213.248 483.447 201.762 494.933 187.648 494.933Z" fill="white"/>
<path d="M187.904 460.8H187.819C183.109 460.8 179.328 464.623 179.328 469.333C179.328 474.043 183.185 477.866 187.904 477.866C192.623 477.866 196.437 474.043 196.437 469.333C196.437 464.623 192.623 460.8 187.904 460.8Z" fill="white"/>
<path d="M102.315 256H85.248C80.538 256 76.715 259.823 76.715 264.533C76.715 269.243 80.538 273.066 85.248 273.066H102.315C107.017 273.066 110.848 276.897 110.848 281.599V469.332C110.848 474.042 114.671 477.865 119.381 477.865C124.091 477.865 127.914 474.042 127.914 469.332V281.6C127.915 267.486 116.429 256 102.315 256Z" fill="white"/>
<path d="M409.515 358.4H383.915V349.867C383.915 345.157 380.092 341.334 375.382 341.334C370.672 341.334 366.849 345.157 366.849 349.867V358.4H349.782V349.867C349.782 345.157 345.959 341.334 341.249 341.334C336.539 341.334 332.716 345.157 332.716 349.867V358.4H315.649V349.867C315.649 345.157 311.826 341.334 307.116 341.334C302.406 341.334 298.583 345.157 298.583 349.867V358.4H281.516V298.667C281.516 293.957 277.693 290.134 272.983 290.134H153.515C148.805 290.134 144.982 293.957 144.982 298.667C144.982 303.377 148.805 307.2 153.515 307.2H264.448V366.933C264.448 371.643 268.271 375.466 272.981 375.466H400.981V460.8H375.381C374.895 460.8 374.468 460.996 374.007 461.082C373.401 461.184 372.778 461.202 372.215 461.44C369.075 462.703 366.848 465.741 366.848 469.333C366.848 469.563 366.959 469.751 366.976 469.981L366.848 503.432C366.831 508.142 370.637 511.982 375.347 511.999H375.381C380.074 511.999 383.897 508.202 383.914 503.5L384.016 477.866H409.514C414.224 477.866 418.047 474.043 418.047 469.333V366.933C418.048 362.223 414.225 358.4 409.515 358.4Z" fill="white"/>
<path d="M435.106 194.517C434.193 99.387 358.707 21.964 264.448 17.493V8.533C264.448 3.823 260.625 0 255.915 0C251.205 0 247.382 3.823 247.382 8.533V17.502C152.543 21.999 76.715 100.335 76.715 196.267C76.715 200.448 79.753 204.024 83.883 204.689C87.979 205.303 92.024 202.931 93.346 198.963C93.414 198.767 100.249 179.2 127.915 179.2C155.119 179.2 162.219 198.238 162.484 198.963C163.653 202.453 166.904 204.8 170.582 204.8C174.26 204.8 177.52 202.453 178.68 198.963C178.748 198.767 185.584 179.2 213.249 179.2C237.108 179.2 245.505 193.835 247.382 197.922V264.533C247.382 269.243 251.205 273.066 255.915 273.066C260.625 273.066 264.448 269.243 264.448 264.533V197.913C266.3 193.86 274.62 179.199 298.581 179.199C325.785 179.199 332.885 198.237 333.149 198.962C334.318 202.452 337.569 204.799 341.247 204.799C344.925 204.799 348.185 202.452 349.345 198.962C349.413 198.766 356.249 179.199 383.914 179.199C411.007 179.199 418.167 198.083 418.508 199.039C419.703 202.521 422.979 204.799 426.572 204.799H426.7C431.402 205.209 435.285 201.002 435.285 196.266C435.285 195.669 435.226 195.081 435.106 194.517ZM383.915 162.133C361.652 162.133 348.553 171.554 341.248 180.087C333.952 171.554 320.845 162.133 298.581 162.133C276.318 162.133 263.21 171.554 255.914 180.087C248.618 171.554 235.511 162.133 213.247 162.133C190.984 162.133 177.885 171.554 170.58 180.087C163.284 171.554 150.177 162.133 127.913 162.133C113.799 162.133 103.371 165.913 95.768 170.863C106.383 103.697 158.394 50.176 224.758 37.205C205.2 55.296 180.82 88.004 170.716 143.539C169.871 148.173 172.952 152.618 177.585 153.463C178.106 153.557 178.618 153.6 179.121 153.6C183.166 153.6 186.758 150.716 187.509 146.594C199.038 83.217 230.116 52.975 247.379 40.636V145.067C247.379 149.777 251.202 153.6 255.912 153.6C260.622 153.6 264.445 149.777 264.445 145.067V40.738C281.699 53.214 312.88 83.686 324.315 146.594C325.066 150.716 328.659 153.6 332.703 153.6C333.206 153.6 333.727 153.557 334.239 153.463C338.873 152.618 341.953 148.172 341.108 143.539C331.004 88.004 306.625 55.296 287.066 37.205C353.43 50.176 405.44 103.697 416.056 170.863C408.457 165.914 398.029 162.133 383.915 162.133Z" fill="white"/>
<path d="M341.248 460.8H255.915C251.205 460.8 247.382 464.623 247.382 469.333C247.382 474.043 251.205 477.866 255.915 477.866H341.248C345.958 477.866 349.781 474.043 349.781 469.333C349.781 464.623 345.958 460.8 341.248 460.8Z" fill="white"/>
<path d="M392.448 290.133H307.115C302.405 290.133 298.582 293.956 298.582 298.666C298.582 303.376 302.405 307.199 307.115 307.199H392.448C397.235 307.199 400.981 310.945 400.981 315.732V332.8C400.981 337.51 404.804 341.333 409.514 341.333C414.224 341.333 418.047 337.51 418.047 332.8V315.733C418.048 301.619 406.562 290.133 392.448 290.133Z" fill="white"/>
</g>
<defs>
<clipPath id="clip0_3_927">
<rect width="512" height="512" fill="white"/>
</clipPath>
</defs>
</svg>
