<svg width="512" height="512" viewBox="0 0 512 512" fill="none" xmlns="http://www.w3.org/2000/svg">
<path d="M256 0C151.68 0 66.8087 84.8701 66.8087 189.191C66.8087 290.19 239.284 498.774 246.626 507.603C248.943 510.388 252.377 512 256 512C259.621 512 263.057 510.389 265.374 507.603C272.717 498.773 445.191 290.19 445.191 189.191C445.191 84.8701 360.321 0 256 0ZM256 480.464C240.707 461.367 208.932 420.68 177.488 374.168C121.032 290.657 91.1896 226.692 91.1896 189.191C91.1896 98.3138 165.124 24.381 256 24.381C346.876 24.381 420.81 98.3138 420.81 189.191C420.81 226.691 390.97 290.655 334.512 374.168C303.067 420.68 271.293 461.367 256 480.464Z" fill="white"/>
<path d="M318.02 347.763C312.442 343.994 304.863 345.463 301.095 351.042C284.644 375.394 266.216 400.916 246.321 426.899C242.228 432.245 243.242 439.896 248.588 443.989C250.799 445.682 253.404 446.501 255.99 446.501C259.654 446.501 263.279 444.855 265.678 441.721C285.865 415.357 304.578 389.44 321.297 364.69C325.066 359.112 323.6 351.533 318.02 347.763Z" fill="white"/>
<path d="M256 93.4603C200.881 93.4603 156.038 138.303 156.038 193.422C156.038 248.541 200.881 293.384 256 293.384C311.119 293.384 355.962 248.541 355.962 193.422C355.962 138.303 311.119 93.4603 256 93.4603ZM256 269.003C214.325 269.003 180.419 235.097 180.419 193.422C180.419 151.747 214.325 117.841 256 117.841C297.677 117.841 331.581 151.747 331.581 193.422C331.581 235.097 297.677 269.003 256 269.003Z" fill="white"/>
</svg>
