<svg width="512" height="512" viewBox="0 0 512 512" fill="none" xmlns="http://www.w3.org/2000/svg">
<path d="M159.355 417.063C147.584 417.063 138.009 426.639 138.009 438.412C138.009 450.185 147.584 459.761 159.355 459.761C171.126 459.761 180.701 450.183 180.701 438.412C180.701 426.64 171.124 417.063 159.355 417.063ZM159.355 444.088C156.227 444.088 153.682 441.542 153.682 438.412C153.682 435.282 156.226 432.736 159.355 432.736C162.484 432.736 165.028 435.282 165.028 438.412C165.027 441.542 162.482 444.088 159.355 444.088Z" fill="white"/>
<path d="M353.684 417.063C341.913 417.063 332.337 426.639 332.337 438.412C332.337 450.185 341.914 459.761 353.684 459.761C365.454 459.761 375.03 450.183 375.03 438.412C375.03 426.64 365.455 417.063 353.684 417.063ZM353.684 444.088C350.556 444.088 348.01 441.542 348.01 438.412C348.01 435.282 350.555 432.736 353.684 432.736C356.811 432.736 359.357 435.282 359.357 438.412C359.357 441.542 356.811 444.088 353.684 444.088Z" fill="white"/>
<path d="M439.819 462.367C435.49 462.367 431.982 465.876 431.982 470.204V492.73C431.982 494.713 430.344 496.327 428.33 496.327H401.01V416.756C401.01 404.377 391.359 394.215 379.187 393.389V321.169C408.798 324.175 431.98 349.172 431.98 379.463V436.768C431.98 441.096 435.488 444.605 439.817 444.605C444.146 444.605 447.654 441.096 447.654 436.768V379.463C447.654 338.51 414.246 305.193 373.183 305.193H336.305L336.261 295.413C336.261 290.65 335.127 286.15 333.119 282.163C334.316 281.217 335.499 280.255 336.662 279.265C351.751 266.414 362.496 251.144 368.288 234.712C384.143 228.816 395.469 213.569 395.469 195.722C395.469 179.799 386.453 165.944 373.247 158.954V141.165C373.247 137.264 373.018 133.417 372.592 129.628C374.667 128.561 376.57 127.013 378.272 124.965C381.575 120.994 382.911 115.684 381.935 110.395C381.854 109.952 360.651 51.959 359.549 50.196V42.03C359.552 18.854 340.702 0 317.531 0H194.467C171.295 0 152.444 18.854 152.444 42.029V43.108C146.139 44.939 141.193 50.179 139.947 56.906L136.819 73.806C136.031 78.062 138.843 82.151 143.098 82.938C147.35 83.724 151.443 80.915 152.23 76.659L155.358 59.76C155.54 58.78 156.394 58.069 157.388 58.069H246.5C247.249 58.069 247.94 58.475 248.305 59.132L267.24 93.224L260.7 105C258.871 108.29 258.182 112.042 258.605 115.684H147.488C146.217 115.684 145.227 114.49 145.458 113.241L147.975 99.651C148.763 95.395 145.952 91.306 141.696 90.519C137.441 89.729 133.35 92.541 132.564 96.798L130.047 110.389C129.085 115.588 130.471 120.901 133.851 124.963C135.411 126.839 137.318 128.324 139.43 129.402C138.986 133.263 138.75 137.186 138.75 141.164V158.954C125.546 165.944 116.529 179.799 116.529 195.722C116.529 213.569 127.854 228.816 143.709 234.712C149.5 251.144 160.244 266.414 175.335 279.265C176.498 280.256 177.682 281.218 178.879 282.164C176.872 286.151 175.738 290.653 175.738 295.413V305.193H138.817C97.754 305.193 64.346 338.511 64.346 379.463V492.73C64.346 503.357 73.015 512 83.671 512H428.331C438.987 512 447.656 503.356 447.656 492.73V470.203C447.656 465.876 444.148 462.367 439.819 462.367ZM373.248 206.052V178.567C377.314 183.142 379.796 189.142 379.796 195.719C379.796 202.463 377.191 208.605 372.938 213.22C373.141 210.842 373.248 208.451 373.248 206.052ZM132.202 195.719C132.202 189.142 134.684 183.142 138.749 178.567V206.052C138.749 208.451 138.857 210.841 139.057 213.22C134.808 208.603 132.202 202.462 132.202 195.719ZM344.893 320.865H363.513V393.328H344.893V320.865ZM357.574 170.397C345.682 161.553 338.451 147.553 338.451 132.194C338.451 131.913 338.467 131.635 338.47 131.355H357.005C357.37 134.575 357.573 137.844 357.573 141.16V170.397H357.574ZM346.243 59.989L366.574 113.703C366.639 115.909 365.018 115.682 363.586 115.682C361.507 115.682 279.441 115.91 276.207 115.682C274.698 115.575 273.609 114.035 274.401 112.611L304.105 59.131C304.47 58.477 305.16 58.069 305.91 58.069H343.465C344.7 58.069 345.806 58.833 346.243 59.989ZM262.008 51.522C258.883 45.893 252.94 42.396 246.502 42.396H168.119V42.028C168.119 27.496 179.939 15.673 194.468 15.673H317.53C332.057 15.673 343.877 27.496 343.877 42.028V42.396H305.909C299.47 42.396 293.528 45.893 290.403 51.521L276.204 77.083L262.008 51.522ZM154.423 141.161C154.423 137.844 154.628 134.577 154.991 131.356H173.526C173.531 131.636 173.546 131.914 173.546 132.195C173.546 147.554 166.315 161.556 154.422 170.4V141.161H154.423ZM154.423 206.052V188.738C175.725 178.023 189.22 156.379 189.22 132.194C189.22 131.914 189.209 131.635 189.204 131.355H322.793C322.789 131.635 322.777 131.914 322.777 132.194C322.777 156.378 336.272 178.021 357.574 188.737V206.051C357.574 228.502 346.539 250.264 326.501 267.33C307.112 283.843 282.234 293.313 258.244 293.313H253.754C229.764 293.313 204.885 283.843 185.496 267.33C165.459 250.265 154.423 228.502 154.423 206.052ZM201.276 356.269C204.445 359.44 208.659 361.186 213.143 361.186C217.626 361.186 221.84 359.44 225.01 356.27L256 325.273L286.991 356.27C290.16 359.44 294.374 361.186 298.857 361.186C303.34 361.186 307.554 359.44 310.723 356.27L329.22 337.768V393.326H182.779V337.768L201.276 356.269ZM191.41 324.235V295.412C191.41 293.969 191.648 292.584 192.058 291.275C206.493 299.961 222.506 305.696 238.659 307.93L244.917 314.19L213.925 345.189C213.499 345.614 212.786 345.617 212.359 345.189L191.41 324.235ZM261.812 308.92C281.783 308.253 302.069 302.027 319.935 291.277C320.349 292.596 320.588 293.992 320.588 295.447L320.718 324.105L299.638 345.19C299.213 345.615 298.499 345.617 298.073 345.19L261.812 308.92ZM148.486 320.865H167.105V393.328H148.486V320.865ZM110.99 416.755V496.326H83.67C81.656 496.326 80.018 494.713 80.018 492.729V379.463C80.018 349.172 103.2 324.175 132.813 321.169V393.389C120.641 394.215 110.99 404.375 110.99 416.755ZM219.149 496.327C225.218 481.728 239.512 471.861 255.999 471.861C272.486 471.861 286.782 481.728 292.849 496.327H219.149ZM385.336 496.327H309.418C302.658 472.712 281.169 456.187 256 456.187C230.832 456.187 209.343 472.712 202.582 496.327H126.663V416.756C126.663 412.48 130.14 409.002 134.414 409.002H377.586C381.86 409.002 385.337 412.48 385.337 416.756V496.327H385.336Z" fill="white"/>
<path d="M258.078 342.569C253.75 342.569 250.241 346.078 250.241 350.406V352.138C250.241 356.466 253.75 359.975 258.078 359.975C262.407 359.975 265.915 356.466 265.915 352.138V350.406C265.914 346.078 262.407 342.569 258.078 342.569Z" fill="white"/>
<path d="M258.078 369.767C253.75 369.767 250.241 373.276 250.241 377.604V379.336C250.241 383.664 253.75 387.173 258.078 387.173C262.407 387.173 265.915 383.664 265.915 379.336V377.604C265.914 373.276 262.407 369.767 258.078 369.767Z" fill="white"/>
<path d="M209.991 192.638C205.663 192.638 202.154 196.147 202.154 200.475V210.728C202.154 215.056 205.663 218.565 209.991 218.565C214.319 218.565 217.828 215.056 217.828 210.728V200.475C217.827 196.147 214.318 192.638 209.991 192.638Z" fill="white"/>
<path d="M302.009 192.638C297.68 192.638 294.172 196.147 294.172 200.475V210.728C294.172 215.056 297.681 218.565 302.009 218.565C306.338 218.565 309.846 215.056 309.846 210.728V200.475C309.846 196.147 306.338 192.638 302.009 192.638Z" fill="white"/>
<path d="M279.358 245.665C276.296 242.605 271.334 242.607 268.276 245.667C264.996 248.948 260.637 250.755 256 250.755C251.363 250.755 247.002 248.947 243.722 245.667C240.663 242.605 235.7 242.604 232.64 245.665C229.578 248.724 229.578 253.687 232.638 256.747C238.878 262.989 247.175 266.428 256 266.428C264.824 266.428 273.123 262.989 279.362 256.747C282.421 253.686 282.42 248.724 279.358 245.665Z" fill="white"/>
</svg>
