<svg width="520" height="512" viewBox="0 0 520 512" fill="none" xmlns="http://www.w3.org/2000/svg">
<g clip-path="url(#clip0_3_1013)" filter="url(#filter0_d_3_1013)">
<path d="M504.394 94.7828C496.351 98.3502 488.081 101.361 479.631 103.806C489.635 92.492 497.262 79.18 501.918 64.6127C502.962 61.3475 501.88 57.7734 499.196 55.6379C496.516 53.5007 492.792 53.2447 489.84 54.9938C471.895 65.6367 452.535 73.2854 432.235 77.7579C411.786 57.7767 384.013 46.4054 355.301 46.4054C294.695 46.4054 245.388 95.711 245.388 156.315C245.388 161.088 245.69 165.835 246.288 170.516C171.082 163.913 101.164 126.948 53.152 68.0531C51.4409 65.9539 48.8049 64.8225 46.1062 65.0389C43.4058 65.2503 40.9796 66.7731 39.6154 69.1134C29.8775 85.8228 24.7294 104.934 24.7294 124.378C24.7294 150.862 34.1849 175.989 50.8876 195.624C45.8089 193.865 40.8805 191.666 36.1767 189.055C33.6514 187.65 30.5695 187.671 28.0607 189.11C25.5502 190.548 23.9763 193.194 23.9102 196.086C23.8986 196.573 23.8986 197.061 23.8986 197.554C23.8986 237.086 45.1747 272.676 77.7032 292.075C74.9087 291.795 72.1158 291.391 69.3411 290.861C66.4805 290.314 63.539 291.316 61.6099 293.498C59.6775 295.678 59.0383 298.717 59.9286 301.492C71.9688 339.083 102.968 366.732 140.443 375.162C109.361 394.63 73.817 404.827 36.5037 404.827C28.718 404.827 20.8877 404.369 13.2242 403.463C9.41728 403.01 5.77713 405.258 4.48061 408.878C3.18409 412.5 4.55824 416.538 7.79705 418.615C55.7318 449.349 111.158 465.595 168.081 465.595C279.985 465.595 349.988 412.826 389.007 368.557C437.664 313.359 465.57 240.296 465.57 168.106C465.57 165.09 465.523 162.045 465.431 159.009C484.628 144.546 501.155 127.042 514.604 106.924C516.647 103.868 516.426 99.8301 514.059 97.0174C511.696 94.203 507.757 93.293 504.394 94.7828Z" fill="#FFC452"/>
</g>
<defs>
<filter id="filter0_d_3_1013" x="0" y="0" width="520" height="520" filterUnits="userSpaceOnUse" color-interpolation-filters="sRGB">
<feFlood flood-opacity="0" result="BackgroundImageFix"/>
<feColorMatrix in="SourceAlpha" type="matrix" values="0 0 0 0 0 0 0 0 0 0 0 0 0 0 0 0 0 0 127 0" result="hardAlpha"/>
<feOffset dy="4"/>
<feGaussianBlur stdDeviation="2"/>
<feComposite in2="hardAlpha" operator="out"/>
<feColorMatrix type="matrix" values="0 0 0 0 0 0 0 0 0 0 0 0 0 0 0 0 0 0 0.25 0"/>
<feBlend mode="normal" in2="BackgroundImageFix" result="effect1_dropShadow_3_1013"/>
<feBlend mode="normal" in="SourceGraphic" in2="effect1_dropShadow_3_1013" result="shape"/>
</filter>
<clipPath id="clip0_3_1013">
<rect width="512" height="512" fill="white" transform="translate(4)"/>
</clipPath>
</defs>
</svg>
