<svg width="477" height="512" viewBox="0 0 477 512" fill="none" xmlns="http://www.w3.org/2000/svg">
<path d="M99.9417 272.691H156.065V503.742C156.065 508.304 159.761 512 164.323 512H259.483C264.044 512 267.741 508.304 267.741 503.742V273.78H332.259C336.454 273.78 339.984 270.632 340.463 266.465L350.262 181.403C350.531 179.063 349.789 176.719 348.224 174.964C346.656 173.206 344.413 172.2 342.06 172.2H267.744V118.88C267.744 102.806 276.398 94.6556 293.469 94.6556C295.902 94.6556 342.06 94.6556 342.06 94.6556C346.622 94.6556 350.318 90.9576 350.318 86.3975V8.31917C350.318 3.75742 346.622 0.0611097 342.06 0.0611097H275.095C274.623 0.0379871 273.574 0 272.028 0C260.409 0 220.022 2.28088 188.12 31.63C152.772 64.1536 157.685 103.095 158.86 109.847V172.199H99.9417C95.38 172.199 91.6837 175.895 91.6837 180.457V264.431C91.6837 268.993 95.38 272.691 99.9417 272.691Z" fill="#FFC452"/>
</svg>
