<svg width="552" height="552" viewBox="0 0 552 552" fill="none" xmlns="http://www.w3.org/2000/svg">
<g clip-path="url(#clip0_2_523)">
<path d="M413.695 0C413.695 0 368.329 44.014 319.265 61.759C-44.068 193.178 109.165 449.277 114.164 450.121C114.164 450.121 134.538 414.641 162.06 394.404C336.704 266.015 372.2 118.233 372.2 118.233C372.2 118.233 333.01 296.062 177.638 406.712C143.322 431.138 120.086 491.28 110.25 551.391C110.25 551.391 134.575 541.563 145.035 538.901C149.114 512.283 157.642 486.795 172.06 464.026C389.211 489.88 460.332 314.903 469.623 253.89C491.552 109.79 413.695 0 413.695 0Z" fill="#B87390"/>
</g>
<defs>
<clipPath id="clip0_2_523">
<rect width="551.391" height="551.391" fill="white"/>
</clipPath>
</defs>
</svg>
