<svg width="456" height="432" viewBox="0 0 456 432" fill="none" xmlns="http://www.w3.org/2000/svg">
<path d="M381.858 157.368C371.993 140.567 357.498 128.044 339.939 121.154C321.275 113.829 299.895 112.935 278.108 118.565C262.684 122.551 252.104 129.709 241.026 139.428C243.186 126.486 247.411 114.109 253.205 104.288C263.798 86.3336 278.977 77.2303 298.32 77.2303C304.615 77.2303 309.72 72.3951 309.72 66.4303C309.72 60.4654 304.615 55.6303 298.32 55.6303C280.311 55.6303 264.545 61.1599 251.67 71.8184C249.045 57.543 241.883 44.0959 230.762 33.561C216.54 20.0869 197.631 12.6668 177.516 12.6668C170.932 12.6668 164.374 13.4811 158.026 15.0865C154.084 16.0839 151.005 19.0005 149.952 22.7351C143.032 47.2884 150.505 73.6922 169.453 91.6429C183.673 105.115 202.583 112.535 222.698 112.537C222.7 112.537 222.701 112.537 222.702 112.537C223.322 112.537 223.941 112.523 224.56 112.508C217.541 132.02 216.6 150.351 216.6 158.702C216.6 161.739 217.927 164.478 220.056 166.44C220.017 166.488 219.979 166.533 219.938 166.581C224.391 170.799 231.608 170.799 236.062 166.581C264.102 140.016 302.341 129.78 331.215 141.11C359.436 152.183 374.977 181.846 374.977 224.631C374.977 273.232 357.727 318.192 326.408 351.226C298.797 380.348 262.009 397.733 228 397.733C193.991 397.733 157.203 380.348 129.592 351.226C98.2726 318.192 81.0238 273.232 81.0238 224.631C81.0238 186.719 92.9419 159.428 115.491 145.71C135.055 133.807 161.064 133.389 186.847 144.564C192.572 147.046 199.336 144.661 201.956 139.236C204.575 133.813 202.058 127.403 196.332 124.922C180.727 118.159 164.192 114.714 148.511 114.943C131.982 115.192 116.303 119.546 103.171 127.535C89.0562 136.122 78.0113 148.562 70.3426 164.508C62.3021 181.228 58.2244 201.456 58.2244 224.631C58.2244 278.57 77.5457 328.654 112.631 365.659C128.393 382.285 147.216 395.954 167.065 405.19C186.95 414.443 208.021 419.333 228 419.333C247.979 419.333 269.05 414.442 288.936 405.19C308.784 395.953 327.608 382.285 343.37 365.659C378.455 328.654 397.777 278.57 397.777 224.631C397.777 197.989 392.42 175.358 381.858 157.368ZM222.7 90.9366C208.676 90.936 195.491 85.7623 185.576 76.369C173.994 65.3962 168.561 49.889 170.649 34.6907C172.923 34.4083 175.217 34.2663 177.517 34.2663C191.541 34.2663 204.725 39.44 214.641 48.8344C226.224 59.8072 231.656 75.3149 229.567 90.5127C227.294 90.7951 225.002 90.9371 222.703 90.9371C222.702 90.9366 222.701 90.9366 222.7 90.9366Z" fill="white"/>
<path d="M329.367 222.974C329.373 223.523 329.377 224.076 329.377 224.631C329.377 230.597 334.48 235.431 340.777 235.431C347.072 235.431 352.177 230.597 352.177 224.631C352.177 223.989 352.172 223.35 352.165 222.714C352.089 216.75 346.947 211.965 340.629 212.045C334.333 212.116 329.291 217.009 329.367 222.974Z" fill="white"/>
<path d="M336.348 170.632C328.758 162.338 318.531 158.133 305.952 158.133C299.656 158.133 294.552 162.968 294.552 168.933C294.552 174.898 299.656 179.733 305.952 179.733C313.529 179.733 316.97 182.431 319.121 184.782C321.227 187.082 323.077 190.235 324.621 194.152C326.333 198.495 330.68 201.176 335.303 201.176C336.626 201.176 337.975 200.956 339.288 200.492C345.186 198.405 348.182 192.184 345.98 186.596C343.482 180.257 340.241 174.886 336.348 170.632Z" fill="white"/>
</svg>
