<svg width="450" height="433" viewBox="0 0 450 433" fill="none" xmlns="http://www.w3.org/2000/svg">
<path d="M407.478 211.236H387.023C394.082 203.592 398.382 193.537 398.382 182.531C398.382 158.671 378.21 139.261 353.414 139.261H344.811C353.352 130.726 358.622 119.138 358.622 106.382V99.4212C358.621 44.5999 312.27 0 255.296 0H232.827C228.647 0 225.258 3.26088 225.258 7.2828C225.258 11.3047 228.647 14.5656 232.827 14.5656H244.259C260.013 14.5656 272.831 26.899 272.831 42.0582C272.831 57.2173 260.013 69.5508 244.259 69.5508H197.433C173.331 69.5508 153.723 88.4187 153.723 111.609C153.723 122.188 157.813 131.861 164.539 139.26H158.931C158.025 139.26 157.127 139.294 156.234 139.345L96.4276 35.6848C96.4077 35.6493 96.3869 35.6138 96.3661 35.5783C91.9715 28.2545 84.8767 23.0155 76.3875 20.827C67.8982 18.6385 59.0324 19.7619 51.4211 23.9905C43.8097 28.219 38.365 35.0458 36.0906 43.2143C33.8162 51.382 34.9837 59.9138 39.3338 67.1638L123.464 211.237H104.868C100.688 211.237 97.2989 214.498 97.2989 218.52V279.459C97.2989 283.481 100.688 286.742 104.868 286.742H123.573V425.717C123.573 429.739 126.962 433 131.142 433H381.204C385.384 433 388.773 429.739 388.773 425.717V286.741H407.478C411.658 286.741 415.047 283.48 415.047 279.458V218.519C415.047 214.497 411.657 211.236 407.478 211.236ZM383.244 182.532C383.244 198.36 369.861 211.236 353.413 211.236H234.673C230.494 211.236 227.105 214.497 227.105 218.519V297.539C227.105 306.374 219.634 313.562 210.452 313.562C201.272 313.562 193.801 306.374 193.801 297.539V218.519C193.801 214.497 190.412 211.236 186.233 211.236H186.232H158.93C142.48 211.236 129.099 198.358 129.099 182.531C129.099 166.703 142.481 153.826 158.93 153.826H309.301H309.312H353.412C369.862 153.826 383.244 166.703 383.244 182.532ZM197.433 139.102C181.678 139.102 168.86 126.769 168.86 111.61C168.86 96.4507 181.678 84.1173 197.433 84.1173H244.259C268.361 84.1173 287.969 65.2494 287.969 42.0591C287.969 33.1094 285.047 24.8016 280.075 17.9758C316.679 28.3019 343.483 60.9052 343.483 99.4221V106.383C343.483 124.509 328.159 139.256 309.325 139.262L197.433 139.102ZM50.7124 46.9832C51.9405 42.5725 54.88 38.8865 58.9898 36.6043C63.0996 34.3229 67.8878 33.7148 72.4697 34.8965C77.0346 36.0735 80.8521 38.8838 83.2268 42.8129L140.959 142.877C129.298 147.79 120.209 157.326 116.203 169.066L52.4873 59.9539C50.1145 56.0002 49.4844 51.3938 50.7124 46.9832ZM112.435 225.801H136.39C136.395 225.801 136.4 225.802 136.405 225.802C136.409 225.802 136.414 225.801 136.42 225.801H158.931H178.665V272.176H112.435V225.801ZM399.909 272.176H355.774C351.594 272.176 348.205 275.437 348.205 279.458C348.205 283.48 351.594 286.741 355.774 286.741H373.635V418.433H138.71V286.741H178.665V297.538C178.665 314.404 192.924 328.127 210.453 328.127C227.983 328.127 242.243 314.405 242.243 297.538V286.741H307.334C311.514 286.741 314.903 283.48 314.903 279.458C314.903 275.437 311.514 272.176 307.334 272.176H242.243V225.801H353.413H399.909V272.176Z" fill="white"/>
</svg>
