<svg width="472" height="464" viewBox="0 0 472 464" fill="none" xmlns="http://www.w3.org/2000/svg">
<path d="M114.221 152.25H99.6536C99.6536 166.291 88.0334 177.714 73.7499 177.714V192.035C88.0334 192.035 99.6536 203.458 99.6536 217.5H114.221C114.221 203.458 125.841 192.035 140.125 192.035V177.714C125.841 177.714 114.221 166.291 114.221 152.25ZM106.937 194.752C104.203 190.909 100.799 187.562 96.8889 184.875C100.798 182.187 104.203 178.84 106.937 174.997C109.672 178.84 113.076 182.188 116.985 184.875C113.076 187.563 109.672 190.908 106.937 194.752Z" fill="white"/>
<path d="M132.751 304.588C100.168 304.588 73.6595 278.53 73.6595 246.499H59.0921C59.0921 278.529 32.5845 304.588 0.000915527 304.588V318.909C32.5836 318.909 59.0921 344.967 59.0921 376.998H73.6595C73.6595 344.968 100.167 318.909 132.751 318.909V304.588V304.588ZM66.3758 345.615C59.128 330.859 46.9353 318.875 31.9254 311.748C46.9353 304.624 59.1262 292.638 66.3758 277.882C73.6236 292.638 85.8163 304.622 100.826 311.748C85.8163 318.875 73.6236 330.86 66.3758 345.615Z" fill="white"/>
<path d="M442.408 152.25H427.84C427.84 168.289 414.566 181.339 398.249 181.339V195.66C414.566 195.66 427.84 208.709 427.84 224.75H442.408C442.408 208.71 455.682 195.66 471.999 195.66V181.339C455.684 181.339 442.408 168.289 442.408 152.25ZM435.124 200.89C431.82 195.971 427.524 191.749 422.521 188.501C427.525 185.253 431.82 181.029 435.124 176.111C438.428 181.03 442.724 185.253 447.727 188.501C442.724 191.749 438.429 195.971 435.124 200.89Z" fill="white"/>
<path d="M221.25 217.588V231.909C237.567 231.91 250.842 244.959 250.842 260.999H265.409C265.409 244.96 278.683 231.91 295 231.91V217.589C278.684 217.589 265.409 204.54 265.409 188.5H250.842C250.841 204.539 237.567 217.588 221.25 217.588ZM258.124 212.359C261.428 217.278 265.724 221.501 270.727 224.749C265.723 227.997 261.428 232.22 258.124 237.138C254.82 232.219 250.525 227.997 245.522 224.749C250.525 221.502 254.82 217.278 258.124 212.359Z" fill="white"/>
<path d="M29.5921 79.7018H44.1596C44.1596 63.6621 57.4336 50.6122 73.7508 50.6122V36.2916C57.4345 36.2916 44.1596 23.2426 44.1596 7.20197H29.5921C29.5921 23.2407 16.3172 36.2916 0 36.2916V50.6122C16.3162 50.6122 29.5921 63.6621 29.5921 79.7018ZM36.8758 31.0626C40.1798 35.9817 44.4758 40.2039 49.4788 43.4519C44.4749 46.6999 40.1798 50.923 36.8758 55.8412C33.5719 50.9221 29.2759 46.6999 24.2729 43.4519C29.2759 40.2039 33.5709 35.9808 36.8758 31.0626Z" fill="white"/>
<path d="M324.591 72.5008H339.158C339.158 56.4611 352.432 43.4111 368.749 43.4111V29.0897C352.433 29.0897 339.158 16.0406 339.158 0H324.591C324.591 16.0397 311.317 29.0897 294.999 29.0897V43.4102C311.316 43.4102 324.591 56.4602 324.591 72.5008ZM331.875 23.8606C335.179 28.7797 339.475 33.0019 344.478 36.2499C339.474 39.4979 335.179 43.721 331.875 48.6393C328.571 43.7201 324.275 39.4979 319.272 36.2499C324.275 33.001 328.57 28.7797 331.875 23.8606Z" fill="white"/>
<path d="M169.534 391.499H154.967C154.967 407.539 141.693 420.589 125.376 420.589V434.909C141.692 434.909 154.967 447.959 154.967 463.999H169.534C169.534 447.959 182.808 434.909 199.126 434.909V420.59C182.808 420.588 169.534 407.539 169.534 391.499ZM162.251 440.139C158.947 435.219 154.651 430.997 149.648 427.749C154.652 424.501 158.947 420.278 162.251 415.36C165.555 420.279 169.851 424.501 174.854 427.749C169.851 430.998 165.555 435.219 162.251 440.139Z" fill="white"/>
<path d="M331.784 261H317.217C317.217 313.018 274.167 355.339 221.25 355.339V369.66C274.166 369.66 317.217 411.98 317.217 463.999H331.784C331.784 411.98 374.834 369.66 427.75 369.66V355.339C374.834 355.339 331.784 313.018 331.784 261ZM324.499 425.194C313.279 396.446 289.969 373.529 260.724 362.5C289.969 351.47 313.28 328.555 324.499 299.806C335.719 328.555 359.03 351.471 388.275 362.5C359.031 373.529 335.72 396.446 324.499 425.194Z" fill="white"/>
<path d="M154.967 166.75H169.534C169.534 126.723 202.659 94.1601 243.375 94.1601V79.8396C202.658 79.8396 169.534 47.2763 169.534 7.25H154.967C154.967 47.2763 121.842 79.8396 81.1258 79.8396V94.1601C121.841 94.1601 154.967 126.723 154.967 166.75ZM162.251 41.7926C171.183 61.9865 187.695 78.2192 208.237 86.9998C187.694 95.7805 171.183 112.013 162.251 132.207C153.319 112.013 136.806 95.7805 116.264 86.9998C136.805 78.2192 153.319 61.9865 162.251 41.7926Z" fill="white"/>
</svg>
